<?xml version="1.0" encoding="utf-8"?>
<!-- Generator: Adobe Illustrator 19.0.0, SVG Export Plug-In . SVG Version: 6.00 Build 0)  -->
<svg version="1.1" id="Layer_1" xmlns="http://www.w3.org/2000/svg" xmlns:xlink="http://www.w3.org/1999/xlink" x="0px" y="0px"
	 width="191px" height="72.3px" viewBox="0 0 191 72.3" style="enable-background:new 0 0 191 72.3;" xml:space="preserve">
<style type="text/css">
	.st0{fill:var(--logo-color, #86F644);}
</style>
<g id="XMLID_8_">
	<g id="XMLID_27_">
		<path id="XMLID_21_" class="st0" d="M87.2,39.5c-0.8-0.7-1.3-1.9-1.3-3.3v-9.4c0-1.5,0.4-2.6,1.3-3.3c0.8-0.7,2-1.1,3.6-1.1h3.8v2
			h-4.1c-0.7,0-1.2,0.2-1.6,0.6c-0.4,0.4-0.6,0.8-0.6,1.4v10.4c0,0.5,0.2,1,0.6,1.4c0.4,0.4,1,0.6,1.6,0.6h4.1v2h-3.8
			C89.2,40.6,88,40.3,87.2,39.5z"/>
		<path id="XMLID_23_" class="st0" d="M108.1,39.6c-0.7,0.7-1.9,1-3.5,1h-0.9c-1.6,0-2.7-0.3-3.5-1s-1.1-1.7-1.1-3.2v-4.7
			c0-1.5,0.4-2.5,1.1-3.2c0.7-0.7,1.9-1,3.5-1h0.9c1.6,0,2.7,0.3,3.5,1c0.7,0.7,1.1,1.7,1.1,3.2v4.7C109.2,37.9,108.8,39,108.1,39.6
			z M106.4,29.9c-0.3-0.3-0.8-0.4-1.5-0.4h-1.4c-0.7,0-1.2,0.1-1.5,0.4c-0.3,0.3-0.5,0.7-0.5,1.3V37c0,0.5,0.2,1,0.5,1.3
			c0.3,0.3,0.8,0.4,1.5,0.4h1.4c0.7,0,1.2-0.1,1.5-0.4c0.3-0.3,0.5-0.7,0.5-1.3v-5.8C106.9,30.7,106.7,30.2,106.4,29.9z"/>
		<path id="XMLID_26_" class="st0" d="M115.4,22.3v5.8c0.5-0.3,1.2-0.5,2-0.5h1.2c1.5,0,2.5,0.3,3.3,1c0.7,0.7,1.1,1.7,1.1,3.2v8.9
			h-2.3v-9.4c0-0.5-0.2-0.9-0.5-1.2c-0.3-0.3-0.7-0.5-1.3-0.5h-1.8c-0.6,0-1,0.1-1.3,0.4s-0.4,0.6-0.5,0.9v9.8h-2.3V22.3H115.4z"/>
		<path id="XMLID_32_" class="st0" d="M135.9,39.6c-0.7,0.7-1.9,1-3.5,1h-0.9c-1.6,0-2.7-0.3-3.5-1c-0.7-0.7-1.1-1.7-1.1-3.2v-4.7
			c0-1.5,0.4-2.5,1.1-3.2c0.7-0.7,1.9-1,3.5-1h0.9c1.6,0,2.7,0.3,3.5,1c0.7,0.7,1.1,1.7,1.1,3.2v4.7C137,37.9,136.6,39,135.9,39.6z
			 M134.2,29.9c-0.3-0.3-0.8-0.4-1.5-0.4h-1.4c-0.7,0-1.2,0.1-1.5,0.4c-0.3,0.3-0.5,0.7-0.5,1.3V37c0,0.5,0.2,1,0.5,1.3
			c0.3,0.3,0.8,0.4,1.5,0.4h1.4c0.7,0,1.2-0.1,1.5-0.4c0.3-0.3,0.5-0.7,0.5-1.3v-5.8C134.7,30.7,134.5,30.2,134.2,29.9z"/>
		<path id="XMLID_35_" class="st0" d="M143.2,38.7v-9.2h-2v-2h4.1v0.7c0.6-0.5,1.3-0.7,2.2-0.7h2.8v2.1h-3c-0.6,0-1,0.2-1.3,0.5
			c-0.3,0.4-0.4,0.7-0.5,1.1v7.4h2.9v2h-7.2v-2H143.2z"/>
		<path id="XMLID_41_" class="st0" d="M158.6,39.8c-0.5-0.6-0.7-1.3-0.7-2.3v-8h-2.6v-2h2.6v-3.1h2.3v3.1h3.9v2h-3.9v8.1
			c0,0.4,0.1,0.7,0.3,0.8c0.2,0.2,0.5,0.2,0.9,0.2h2.7v2h-3.4C159.8,40.6,159.1,40.3,158.6,39.8z"/>
		<path id="XMLID_56_" class="st0" d="M176.7,39.8c-0.7,0.5-1.7,0.8-3,0.8h-4v-2h4.3c0.5,0,0.9-0.1,1.1-0.3c0.3-0.2,0.4-0.5,0.4-0.9
			v-1.4c0-0.8-0.4-1.2-1.2-1.2h-1c-1.3,0-2.2-0.3-2.8-0.8c-0.6-0.5-0.9-1.4-0.9-2.5v-0.8c0-1.2,0.3-2,1-2.5c0.7-0.5,1.7-0.8,3-0.8
			h3.6v2h-3.9c-0.4,0-0.8,0.1-1.1,0.3c-0.3,0.2-0.4,0.5-0.4,0.9v0.9c0,0.4,0.1,0.7,0.4,0.9c0.2,0.2,0.6,0.3,0.9,0.3h0.9
			c1.2,0,2.1,0.3,2.8,0.9c0.6,0.6,0.9,1.4,0.9,2.5v1.2C177.8,38.5,177.4,39.3,176.7,39.8z"/>
		<path id="XMLID_60_" class="st0" d="M87.9,54.8v1.8H86v-1.8H87.9z"/>
		<path id="XMLID_62_" class="st0" d="M96.9,45.2c-0.1,0.1-0.2,0.2-0.2,0.4v1.8h3.1v1.4h-3.1v6.5H99v1.4h-5.5v-1.4h1.6v-6.5h-1.6
			v-1.4h1.6v-1.7c0-0.6,0.2-1.1,0.6-1.5c0.4-0.4,0.8-0.5,1.4-0.5h2.9v1.4h-2.6C97.2,45.1,97,45.1,96.9,45.2z"/>
		<path id="XMLID_68_" class="st0" d="M106.9,56.6h-0.6c-1,0-1.8-0.2-2.3-0.7c-0.5-0.5-0.8-1.2-0.8-2.3v-6.3h1.6V54
			c0,0.4,0.1,0.7,0.3,0.9c0.2,0.2,0.5,0.3,0.9,0.3h1c0.4,0,0.7-0.1,0.9-0.3c0.2-0.2,0.3-0.4,0.3-0.7v-6.9h1.6v9.2h-1.5v-0.4
			C108,56.5,107.4,56.6,106.9,56.6z"/>
		<path id="XMLID_70_" class="st0" d="M114.4,47.4v0.4c0.4-0.3,0.9-0.4,1.5-0.4h0.9c1,0,1.8,0.2,2.3,0.7c0.5,0.5,0.8,1.2,0.8,2.3
			v6.3h-1.6V50c0-0.4-0.1-0.7-0.3-0.9c-0.2-0.2-0.5-0.3-0.9-0.3h-1.3c-0.4,0-0.7,0.1-0.9,0.3c-0.2,0.2-0.3,0.4-0.3,0.7v6.8h-1.6
			v-9.2H114.4z"/>
	</g>
	<g id="XMLID_54_">
		<path id="XMLID_88_" class="st0" d="M72,21.9h-9v8.5h-3.9V16.6l-6.1-3l-6.2,3v13.8h-4.1v-8.5h-9.3c-1.8,0-3.2,1.5-3.2,3.2v28.7
			c0,1.8,1.4,3.2,3.2,3.2h8.7l0.1,0L53.1,51L64,57l0,0h8c1.8,0,3.2-1.4,3.2-3.2V25.1C75.3,23.3,73.8,21.9,72,21.9z M53.1,47.7l-7,4
			l7.1-10l7.1,10L53.1,47.7z M65.7,53.8L53.1,35.9L40.5,53.8l-7,0l0-28.7h6v8.5h10.6V18.1h5.8v15.5h10.5v-8.5H72l0,28.7H65.7z"/>
	</g>
</g>
</svg>
