<svg width="118" height="142" viewBox="0 0 118 142" fill="none" xmlns="http://www.w3.org/2000/svg">
<path d="M118 50.7479V141.364H80.0929V114.678C80.0929 102.954 70.5931 93.4484 58.9208 93.4484C47.2486 93.4484 37.7488 102.954 37.7488 114.678V141.364H0V50.7479H22.0926V63.841C22.0926 69.4444 26.6399 73.9752 32.2183 73.9752C37.7967 73.9752 42.3441 69.4444 42.3441 63.841V50.7479H75.4829V63.7855C75.4829 69.3889 80.0303 73.9198 85.6086 73.9198C91.187 73.9198 95.7344 69.3889 95.7344 63.7855V50.7479H118Z" fill="#49FF13"/>
<path d="M53.772 2.98409V59.2121H63.6231V34.0029C63.6231 34.0029 66.1402 28.8251 75.3168 31.1091C87.4602 34.1318 102.421 32.0835 112.025 14.7008C82.9216 24.2865 82.1422 -8.65347 53.772 2.98409Z" fill="#49FF13"/>
</svg>
